<svg width="580" height="648" viewBox="0 0 580 648" fill="none" xmlns="http://www.w3.org/2000/svg">
<path fill-rule="evenodd" clip-rule="evenodd" d="M136.48 117.15C54.7835 97.8021 -42.5715 129.412 -68.4421 150.531L-79 309.825C-79 312.335 -78.2249 314.093 -76.4156 314.978L-86 489.187C-86 493.464 -84.4503 495.927 -80.6178 496.17L-86 593.998C-86.0001 602.498 -79.8778 603.833 -61.8788 594.813L-66 643.453C-66.0001 654.377 -42.0179 647.074 50.5613 605.497C154.189 558.957 262.55 554.627 319 560C383.738 566.163 446.288 582.838 497.914 597.171C551.004 611.911 610.73 594.578 632 586.39V518.335V477.752V470.152C634.65 469.406 636.996 468.698 639 468.057V411.565V377.879V321.388C631.729 321.388 625.1 321.471 619 321.631V236.878V185V98C566.725 98.0001 547.623 104.614 519.985 114.183C506.87 118.724 491.832 123.931 470.414 129.412C412.385 144.263 238.601 141.334 136.48 117.15Z" fill="#A7C688"/>
<rect x="535.134" y="79.8311" width="2.6815" height="54.9708" fill="#A7C688"/>
<rect x="547.199" y="42.959" width="2.6815" height="25.4743" fill="#A7C688"/>
<rect width="3" height="17" transform="matrix(-1 0 0 1 538 15)" fill="#A7C688"/>
<rect x="548.133" y="66.666" width="2.6815" height="18.3831" transform="rotate(45 548.133 66.666)" fill="#A7C688"/>
<rect width="2.6815" height="18.3831" transform="matrix(-0.707107 0.707107 0.707107 0.707107 537.029 29.7959)" fill="#A7C688"/>
<rect width="2.6815" height="18.7276" transform="matrix(-0.707107 0.707107 0.707107 0.707107 524.572 91.2275)" fill="#A7C688"/>
<circle r="6.70375" transform="matrix(-1 0 0 1 519.044 87.2047)" stroke="#A7C688" stroke-width="2.6815"/>
<circle cx="536.474" cy="8.0445" r="6.70375" stroke="#A7C688" stroke-width="2.6815"/>
<rect width="2.6815" height="72.4005" transform="matrix(-1 0 0 1 490.815 67.4082)" fill="#A7C688"/>
<rect width="2.6815" height="18.7276" transform="matrix(-0.707107 0.707107 0.707107 0.707107 477.572 96.2324)" fill="#A7C688"/>
<circle r="6.70375" transform="matrix(-1 0 0 1 472.044 92.2105)" stroke="#A7C688" stroke-width="2.6815"/>
<circle r="6.70375" transform="matrix(-1 0 0 1 489.475 62.0445)" stroke="#A7C688" stroke-width="2.6815"/>
<rect x="366.134" y="93.9482" width="2.6815" height="54.9708" fill="#A7C688"/>
<rect x="378.199" y="57.0791" width="2.6815" height="25.4743" fill="#A7C688"/>
<rect x="391.443" y="68.4736" width="2.6815" height="18.7276" transform="rotate(45 391.443 68.4736)" fill="#A7C688"/>
<rect x="379.133" y="80.7842" width="2.6815" height="18.3831" transform="rotate(45 379.133 80.7842)" fill="#A7C688"/>
<rect width="2.6815" height="18.7276" transform="matrix(-0.707107 0.707107 0.707107 0.707107 355.572 105.346)" fill="#A7C688"/>
<circle cx="396.971" cy="64.4527" r="6.70375" stroke="#A7C688" stroke-width="2.6815"/>
<circle r="6.70375" transform="matrix(-1 0 0 1 350.044 101.323)" stroke="#A7C688" stroke-width="2.6815"/>
<circle cx="379.542" cy="51.0445" r="6.70375" stroke="#A7C688" stroke-width="2.6815"/>
<rect x="56.7031" y="75.418" width="2.6815" height="38.8818" fill="#A7C688"/>
<rect x="69.9463" y="88.1572" width="2.6815" height="18.7276" transform="rotate(45 69.9463 88.1572)" fill="#A7C688"/>
<circle cx="75.4742" cy="84.1334" r="6.70375" stroke="#A7C688" stroke-width="2.6815"/>
<circle cx="58.0445" cy="68.0445" r="6.70375" stroke="#A7C688" stroke-width="2.6815"/>
<rect width="2.6815" height="33.5188" transform="matrix(-1 0 0 1 39.3857 91.4082)" fill="#A7C688"/>
<circle r="6.70375" transform="matrix(-1 0 0 1 38.0444 86.0445)" stroke="#A7C688" stroke-width="2.6815"/>
</svg>
