<svg width="2000" height="750" viewBox="0 0 2000 750" fill="none" xmlns="http://www.w3.org/2000/svg">
<path d="M581.82 166.23C341.705 109.419 55.5673 202.238 -20.4691 264.25L-51.5 732C-51.5003 773.008 18.9861 745.593 291.087 589.522C595.66 414.824 891.359 391.58 1057.27 411.75C1247.54 434.882 1454.17 504.468 1605.9 558.271C1761.94 613.6 1937.48 548.537 2000 517.801V110C1773.45 110 1758.88 152.228 1563.29 202.238C1392.74 245.846 881.964 237.245 581.82 166.23Z" fill="#A7C688"/>
<rect width="4" height="82" transform="matrix(-1 0 0 1 419 89)" fill="#A7C688"/>
<rect width="4" height="38" transform="matrix(-1 0 0 1 401 34)" fill="#A7C688"/>
<rect width="4" height="27.4221" transform="matrix(-0.707107 0.707107 0.707107 0.707107 399.609 69.3633)" fill="#A7C688"/>
<rect x="434.754" y="106" width="4" height="27.936" transform="rotate(45 434.754 106)" fill="#A7C688"/>
<circle cx="443" cy="100" r="10" stroke="#A7C688" stroke-width="4"/>
<circle r="10" transform="matrix(-1 0 0 1 399 25)" stroke="#A7C688" stroke-width="4"/>
<rect x="1568" y="134" width="4" height="82" fill="#A7C688"/>
<rect x="1586" y="79" width="4" height="38" fill="#A7C688"/>
<rect width="4" height="38" transform="matrix(-1 0 0 1 1572.22 24)" fill="#A7C688"/>
<rect x="1587.39" y="114.363" width="4" height="27.4221" transform="rotate(45 1587.39 114.363)" fill="#A7C688"/>
<rect width="4" height="27.4221" transform="matrix(-0.707107 0.707107 0.707107 0.707107 1570.83 59.3633)" fill="#A7C688"/>
<rect width="4" height="27.936" transform="matrix(-0.707107 0.707107 0.707107 0.707107 1552.25 151)" fill="#A7C688"/>
<circle r="10" transform="matrix(-1 0 0 1 1544 145)" stroke="#A7C688" stroke-width="4"/>
<circle cx="1570" cy="12" r="10" stroke="#A7C688" stroke-width="4"/>
<rect x="703" y="138" width="4" height="82" fill="#A7C688"/>
<rect x="721" y="83" width="4" height="38" fill="#A7C688"/>
<rect x="740.754" y="100" width="4" height="27.936" transform="rotate(45 740.754 100)" fill="#A7C688"/>
<rect x="722.391" y="118.363" width="4" height="27.4221" transform="rotate(45 722.391 118.363)" fill="#A7C688"/>
<rect width="4" height="27.936" transform="matrix(-0.707107 0.707107 0.707107 0.707107 687.246 155)" fill="#A7C688"/>
<circle cx="749" cy="94" r="10" stroke="#A7C688" stroke-width="4"/>
<circle r="10" transform="matrix(-1 0 0 1 679 149)" stroke="#A7C688" stroke-width="4"/>
<circle cx="723" cy="74" r="10" stroke="#A7C688" stroke-width="4"/>
<rect width="4" height="108" transform="matrix(-1 0 0 1 1488 127)" fill="#A7C688"/>
<rect width="4" height="27.936" transform="matrix(-0.707107 0.707107 0.707107 0.707107 1468.25 170)" fill="#A7C688"/>
<circle r="10" transform="matrix(-1 0 0 1 1460 164)" stroke="#A7C688" stroke-width="4"/>
<circle r="10" transform="matrix(-1 0 0 1 1486 119)" stroke="#A7C688" stroke-width="4"/>
<rect x="762" y="153" width="4" height="58" fill="#A7C688"/>
<rect x="781.754" y="172" width="4" height="27.936" transform="rotate(45 781.754 172)" fill="#A7C688"/>
<circle cx="790" cy="166" r="10" stroke="#A7C688" stroke-width="4"/>
<circle cx="764" cy="142" r="10" stroke="#A7C688" stroke-width="4"/>
<rect x="1657" y="90" width="4" height="108" fill="#A7C688"/>
<rect x="1676.75" y="133" width="4" height="27.936" transform="rotate(45 1676.75 133)" fill="#A7C688"/>
<circle cx="1685" cy="127" r="10" stroke="#A7C688" stroke-width="4"/>
<circle cx="1659" cy="82" r="10" stroke="#A7C688" stroke-width="4"/>
<rect width="4" height="108" transform="matrix(-1 0 0 1 365 79)" fill="#A7C688"/>
<rect width="4" height="27.936" transform="matrix(-0.707107 0.707107 0.707107 0.707107 345.246 118)" fill="#A7C688"/>
<circle r="10" transform="matrix(-1 0 0 1 337 112)" stroke="#A7C688" stroke-width="4"/>
<circle r="10" transform="matrix(-1 0 0 1 363 71)" stroke="#A7C688" stroke-width="4"/>
<rect width="4" height="108" transform="matrix(-1 0 0 1 495 126)" fill="#A7C688"/>
<circle r="10" transform="matrix(-1 0 0 1 493 118)" stroke="#A7C688" stroke-width="4"/>
<rect width="4" height="50" transform="matrix(-1 0 0 1 1519 191)" fill="#A7C688"/>
<circle r="10" transform="matrix(-1 0 0 1 1517 183)" stroke="#A7C688" stroke-width="4"/>
</svg>
