<svg width="223" height="131" viewBox="0 0 223 131" fill="none" xmlns="http://www.w3.org/2000/svg">
<g clip-path="url(#clip0_360_3531)">
<path d="M11.1406 129.941C11.1406 129.941 -0.449402 127.958 1.24629 118.077C2.94198 108.196 13.1161 108.188 13.1161 108.188C13.1161 108.188 -1.57703 86.4435 15.6596 73.4443C32.8963 60.4452 53.8126 70.3428 60.5954 83.3335C60.5954 83.3335 52.9648 25.1424 100.444 6.21986C147.923 -12.7026 167.424 25.1424 164.6 42.0904C164.6 42.0904 190.316 20.3461 209.536 44.6326C228.757 68.9192 203.881 104.798 203.881 104.798C203.881 104.798 222.254 105.086 221.966 116.662C221.677 128.237 203.881 129.941 203.881 129.941H11.1406Z" fill="#A9E4E8"/>
<path d="M11.4204 128.915C8.241 128.365 4.73092 126.619 3.09458 123.746C1.56846 121.068 1.99238 117.569 3.36589 114.916C4.57533 112.648 6.59403 110.918 9.02101 110.069C10.3277 109.555 11.7127 109.269 13.1161 109.222C13.3028 109.22 13.4858 109.17 13.6469 109.075C13.808 108.981 13.9415 108.846 14.0342 108.684C14.1268 108.522 14.1753 108.338 14.1749 108.152C14.1745 107.965 14.1251 107.782 14.0318 107.62C12.6239 105.468 11.4608 103.166 10.5641 100.756C8.72427 95.9599 7.66446 90.5874 8.78362 85.503C10.3097 78.5373 15.8546 73.6393 22.1626 70.7412C28.8489 67.8363 36.3987 67.6207 43.24 70.1395C50.0228 72.5546 56.2629 77.4187 59.6797 83.8929C60.146 84.7403 61.7908 84.4183 61.6552 83.359C61.0236 77.6898 60.981 71.9704 61.528 66.2923C62.4945 54.2338 65.6231 42.1329 71.8463 31.7013C75.5296 25.4981 80.3403 20.0375 86.0307 15.6007C93.1731 10.2197 101.324 6.3266 109.999 4.15229C117.876 2.0592 126.252 1.31349 134.256 3.1354C140.49 4.53779 146.259 7.51697 151.009 11.7874C158.462 18.5666 163.973 28.8541 163.803 39.0822C163.79 39.9959 163.713 40.9076 163.575 41.8109C163.529 42.0306 163.554 42.2589 163.645 42.464C163.736 42.669 163.889 42.8404 164.083 42.9543C164.276 43.0682 164.5 43.1189 164.724 43.0992C164.947 43.0796 165.159 42.9906 165.33 42.8447L165.55 42.6583L166.008 42.3108C166.796 41.7177 167.61 41.1499 168.441 40.616C171.082 38.9076 173.899 37.4872 176.843 36.379C185.059 33.3114 193.995 33.43 201.431 38.4467C210.214 44.3785 215.285 54.488 215.7 64.945C216.056 73.8342 213.657 82.7404 210.172 90.8246C208.121 95.4116 205.749 99.8488 203.076 104.103L202.94 104.307C202.849 104.468 202.801 104.651 202.802 104.836C202.802 105.021 202.851 105.203 202.944 105.364C203.036 105.525 203.169 105.659 203.329 105.753C203.488 105.847 203.67 105.897 203.856 105.9C211.266 106.027 223.865 109.713 220.346 119.611C218.608 124.509 212.945 126.856 208.307 128.085C207.357 128.331 206.399 128.543 205.424 128.712L204.5 128.856C204.322 128.856 204.203 128.856 204.356 128.856C204.254 128.856 204.152 128.856 204.051 128.856C203.887 128.865 203.723 128.865 203.559 128.856C200.167 128.915 196.776 128.856 193.385 128.856H11.0982C10.8172 128.856 10.5476 128.968 10.3488 129.166C10.1501 129.365 10.0384 129.634 10.0384 129.915C10.0384 130.196 10.1501 130.466 10.3488 130.664C10.5476 130.863 10.8172 130.975 11.0982 130.975H203.05C204.032 130.957 205.011 130.855 205.975 130.67C210.723 129.822 215.785 128.127 219.329 124.738C223.492 120.746 224.373 113.976 220.363 109.552C217.048 105.925 211.639 104.57 206.874 103.985C205.876 103.848 204.871 103.766 203.864 103.739L204.78 105.332C207.273 101.614 209.435 97.6838 211.24 93.5872C215.022 85.2826 217.76 76.2747 217.862 67.0889C217.972 56.2845 213.75 45.9801 205.492 38.8619C201.669 35.4729 196.967 33.2317 191.926 32.3962C187.634 31.797 183.263 32.1235 179.107 33.3538C175.621 34.3728 172.277 35.8247 169.153 37.6755C168.043 38.328 166.966 39.0144 165.915 39.7602C165.251 40.1647 164.627 40.6299 164.049 41.1499C163.974 41.2194 163.895 41.2845 163.812 41.3448L165.618 42.3702C167.271 32.2691 162.447 21.38 155.978 13.855C151.769 8.97279 146.431 5.19125 140.428 2.83881C133.205 1.13889e-05 125.286 -0.533853 117.647 0.474557C100.529 2.73712 84.0976 11.3044 73.6607 25.1933C65.7503 35.718 61.5619 48.5816 59.9001 61.5299C59.283 66.2354 58.9997 70.9785 59.0523 75.7239C59.0523 77.3086 59.1286 78.8932 59.2388 80.4694C59.2488 81.3211 59.3225 82.1709 59.4593 83.0116C59.4593 83.1133 59.4593 83.2234 59.4593 83.3251L61.4347 82.7913C54.652 70.0294 38.2038 63.301 24.4687 67.6312C17.279 69.9023 10.3945 74.8765 7.56272 82.0371C5.4092 87.4689 5.92638 93.5957 7.65598 99.0699C8.68371 102.473 10.188 105.714 12.1241 108.696L13.0398 107.103C10.8677 107.133 8.73431 107.683 6.81922 108.708C4.90413 109.732 3.26331 111.202 2.03478 112.993C0.177998 115.891 -0.618975 119.933 0.542571 123.229C1.5494 125.807 3.47665 127.921 5.95182 129.161C7.47781 130.016 9.133 130.617 10.8524 130.941C12.192 131.195 12.76 129.153 11.4204 128.915Z" fill="#A9E4E8"/>
<path d="M164.6 42.0898C156.474 49.0893 150.054 57.851 145.829 67.7068L164.6 42.0898Z" fill="#A9E4E8"/>
<path d="M163.846 41.3449C158.292 45.8022 153.587 51.7171 149.831 57.7167C147.895 60.8067 146.224 64.0555 144.837 67.4279C144.312 68.6821 146.363 69.2329 146.881 67.9872C150.722 58.9259 156.491 50.809 163.787 44.2006C164.295 43.7345 164.804 43.2769 165.347 42.8448C166.406 41.9974 164.906 40.4975 163.846 41.3449Z" fill="#A9E4E8"/>
</g>
<defs>
<clipPath id="clip0_360_3531">
<rect width="223" height="131" fill="white"/>
</clipPath>
</defs>
</svg>
