<svg width="285" height="115" viewBox="0 0 285 115" fill="none" xmlns="http://www.w3.org/2000/svg">
<path d="M145.012 60.8317C145.012 60.8317 150.748 8.64057 95.3732 1.55874C39.9986 -5.52309 20.9309 62.6104 33.3241 90.4972C33.3241 90.4972 2.67769 86.3412 1.07347 105.958C1.07347 105.958 -0.148394 113.58 14.3145 113.28C28.7774 112.981 279.95 113.28 279.95 113.28C279.95 113.28 285.485 110.446 283.574 103.655C281.662 96.8642 260.167 85.0445 241.324 94.9441C241.324 94.9441 237.916 57.1578 195.99 77.5804C195.99 77.5804 204.161 48.4883 181.452 32.9033C158.744 17.3183 139.892 29.5785 139.892 29.5785" fill="#A9E4E8"/>
<path d="M146.051 60.8322C146.808 53.8917 145.794 46.4608 143.998 39.7696C140.166 25.4896 130.907 13.4704 117.558 6.87066C108.323 2.41558 98.2121 0.0703815 87.9587 0.00494574C79.1587 -0.116062 70.4705 1.98523 62.6985 6.11427C48.2107 13.9276 38.4607 28.3988 33.249 43.7012C28.6359 57.1916 26.5994 73.1506 30.9051 86.9652C31.3316 88.3396 31.8367 89.6883 32.4178 91.0048L33.5898 89.4754C29.0676 88.8894 24.4887 88.8894 19.9665 89.4754C12.9179 90.3648 5.00485 92.9831 1.68004 99.8405C0.591171 102.01 -0.264966 104.736 0.0758263 107.23C0.449867 109.873 2.43644 111.81 4.80536 112.857C8.88655 114.669 13.4498 114.328 17.8136 114.303C25.9012 114.245 33.9888 114.245 42.0764 114.229H82.3647H131.647H182.691H229.155H263.783C269.044 114.229 274.339 114.395 279.575 114.229C280.361 114.158 281.096 113.814 281.653 113.256C283.224 111.951 284.32 110.165 284.771 108.173C285.222 106.181 285.003 104.097 284.147 102.243C282.485 98.7599 278.619 96.2995 275.328 94.579C270.293 91.9507 264.757 90.4236 259.086 90.0988C252.754 89.725 246.437 91.063 240.8 93.9722L242.363 94.8699C241.91 90.5795 240.598 86.4241 238.506 82.6512C236.568 79.0041 233.681 75.949 230.148 73.8096C226.616 71.6702 222.57 70.5263 218.441 70.4991C210.428 70.3328 202.573 73.242 195.466 76.6915L196.996 77.8635C197.756 74.9173 198.213 71.9009 198.359 68.8616C198.853 62.359 197.984 55.8249 195.807 49.6775C189.515 32.7709 170.53 21.9902 152.776 24.2843C148.221 24.8745 143.267 26.1795 139.36 28.7146C138.246 29.4378 139.285 31.2082 140.407 30.51C143.425 28.6978 146.745 27.4448 150.207 26.8112C158.713 25.1245 167.539 26.3913 175.226 30.402C183.115 34.4083 189.673 40.4678 193.18 48.6884C195.593 54.5948 196.674 60.9604 196.347 67.3322C196.289 70.6992 195.831 74.0473 194.984 77.3066C194.937 77.5048 194.948 77.7123 195.017 77.9042C195.085 78.0961 195.207 78.2641 195.369 78.388C195.531 78.5119 195.725 78.5864 195.928 78.6025C196.131 78.6185 196.334 78.5755 196.513 78.4786C206.18 73.8073 219.155 69.3354 229.196 75.5528C234.641 78.8776 237.891 84.829 239.487 90.8718C239.753 91.8859 239.977 92.9083 240.143 93.9389C240.143 94.1135 240.201 94.288 240.226 94.4626C240.229 94.5124 240.229 94.5624 240.226 94.6122C240.226 94.7286 240.226 94.8366 240.226 94.9447C240.221 95.1395 240.27 95.3319 240.367 95.5006C240.465 95.6694 240.607 95.8079 240.778 95.9009C240.949 95.9938 241.143 96.0375 241.337 96.0272C241.532 96.0169 241.72 95.9529 241.88 95.8424C252.686 90.265 266.235 91.2791 276.492 97.671C279.7 99.6742 282.983 102.301 282.967 106.415C282.96 107.377 282.751 108.327 282.355 109.203C281.958 110.079 281.382 110.862 280.664 111.502C280.432 111.71 279.725 112.051 279.575 112.333C279.426 112.616 279.958 112.25 279.958 112.25C279.958 112.25 279.06 112.25 278.91 112.25H267.432H236.228L193.006 112.209H143.566H94.8161H52.5329C42.8577 112.209 33.1853 112.225 23.5157 112.259L15.7938 112.217C13.7497 112.296 11.7025 112.229 9.66788 112.018C6.87505 111.635 3.14296 110.588 2.24526 107.529C2.09406 107.054 2.04035 106.554 2.08733 106.058C2.08733 105.908 2.08733 105.933 2.08733 106.232C2.12612 105.678 2.19262 105.124 2.28682 104.57C2.46049 103.539 2.73901 102.528 3.11802 101.553C4.54383 98.3271 7.09727 95.7323 10.2996 94.2548C16.118 91.3373 23.0668 90.8884 29.4172 91.171C30.3398 91.171 31.2625 91.2791 32.1851 91.3622C32.3763 91.3622 33.6397 91.5368 33.0163 91.4453C33.2134 91.491 33.4195 91.4791 33.61 91.411C33.8005 91.343 33.9675 91.2215 34.0909 91.0613C34.2144 90.901 34.2893 90.7086 34.3065 90.507C34.3238 90.3055 34.2827 90.1032 34.1883 89.9242C31.6947 84.2305 30.8136 77.8469 30.7139 71.6378C30.6322 64.1761 31.5946 56.7396 33.5732 49.5445C37.6295 34.5164 45.8916 19.8374 58.8833 10.8106C74.2771 0.212746 94.0846 0.0548176 111.224 6.39688C118.913 9.15902 125.803 13.7756 131.281 19.8374C135.621 24.8185 138.914 30.6218 140.964 36.9019C143.411 44.4902 144.443 52.4638 144.007 60.4249C144.007 60.5662 144.007 60.6992 144.007 60.8322C143.857 62.1621 145.935 62.1538 146.085 60.8322H146.051Z" fill="#A9E4E8"/>
</svg>
