<svg width="2191" height="1162" viewBox="0 0 2191 1162" fill="none" xmlns="http://www.w3.org/2000/svg">
<path d="M1587.14 141.121C1794.69 138.145 2001.21 190.901 2078.53 217.651L2154.51 252.196L2191 846.271L2060.5 1162H639.5H0V159.07C143.467 137.691 247.577 173.309 586.5 209.979C925.423 246.65 1327.7 144.841 1587.14 141.121Z" fill="#A7C688"/>
<rect x="1450" y="76" width="4" height="82" fill="#A7C688"/>
<rect x="1468" y="21" width="4" height="38" fill="#A7C688"/>
<rect x="1487.75" y="38" width="4" height="27.936" transform="rotate(45 1487.75 38)" fill="#A7C688"/>
<rect x="1469.39" y="56.3633" width="4" height="27.4221" transform="rotate(45 1469.39 56.3633)" fill="#A7C688"/>
<rect width="4" height="27.936" transform="matrix(-0.707107 0.707107 0.707107 0.707107 1434.25 93)" fill="#A7C688"/>
<circle cx="1496" cy="32" r="10" stroke="#A7C688" stroke-width="4"/>
<circle r="10" transform="matrix(-1 0 0 1 1426 87)" stroke="#A7C688" stroke-width="4"/>
<circle cx="1470" cy="12" r="10" stroke="#A7C688" stroke-width="4"/>
<rect width="4" height="108" transform="matrix(-1 0 0 1 1227 76)" fill="#A7C688"/>
<rect width="4" height="27.936" transform="matrix(-0.707107 0.707107 0.707107 0.707107 1207.25 119)" fill="#A7C688"/>
<circle r="10" transform="matrix(-1 0 0 1 1199 113)" stroke="#A7C688" stroke-width="4"/>
<circle r="10" transform="matrix(-1 0 0 1 1225 68)" stroke="#A7C688" stroke-width="4"/>
<rect x="1489" y="90" width="4" height="84" fill="#A7C688"/>
<rect x="1508.75" y="109" width="4" height="27.936" transform="rotate(45 1508.75 109)" fill="#A7C688"/>
<circle cx="1517" cy="103" r="10" stroke="#A7C688" stroke-width="4"/>
<circle cx="1491" cy="79" r="10" stroke="#A7C688" stroke-width="4"/>
<rect width="4" height="50" transform="matrix(-1 0 0 1 1258 140)" fill="#A7C688"/>
<circle r="10" transform="matrix(-1 0 0 1 1256 132)" stroke="#A7C688" stroke-width="4"/>
</svg>
