<svg width="580" height="1004" viewBox="0 0 580 1004" fill="none" xmlns="http://www.w3.org/2000/svg">
<path d="M890.27 33.1208C1069.59 30.1446 1248.02 82.9012 1314.82 109.651L1412 145.5V738.271V1004H71.7716H-480.749L-481 51.0697C-357.046 29.6908 -267.096 65.3085 25.7296 101.979C318.555 138.65 666.116 36.841 890.27 33.1208Z" fill="#A7C688"/>
<rect width="2.6815" height="54.9708" transform="matrix(-1 0 0 1 487.882 50.9473)" fill="#A7C688"/>
<rect width="2.6815" height="25.4743" transform="matrix(-1 0 0 1 475.816 14.0781)" fill="#A7C688"/>
<rect width="2.6815" height="18.7276" transform="matrix(-0.707131 0.707083 0.707131 0.707083 462.572 25.4746)" fill="#A7C688"/>
<rect width="2.6815" height="18.3831" transform="matrix(-0.707116 0.707097 0.707116 0.707097 474.883 37.7852)" fill="#A7C688"/>
<rect width="2.6815" height="18.7276" transform="matrix(0.707125 0.707088 -0.707125 0.707088 498.443 62.3457)" fill="#A7C688"/>
<circle r="6.70375" transform="matrix(-1 0 0 1 457.045 21.4527)" stroke="#A7C688" stroke-width="2.6815"/>
<circle cx="503.971" cy="58.3218" r="6.70375" stroke="#A7C688" stroke-width="2.6815"/>
<circle r="6.70375" transform="matrix(-1 0 0 1 474.474 8.0445)" stroke="#A7C688" stroke-width="2.6815"/>
<rect width="2.6815" height="14.7483" transform="matrix(-1 0 0 1 449.387 78.4082)" fill="#A7C688"/>
<circle r="6.70375" transform="matrix(-1 0 0 1 448.044 73.0445)" stroke="#A7C688" stroke-width="2.6815"/>
<rect width="2.6815" height="38.8818" transform="matrix(-1 0 0 1 92.8154 73.418)" fill="#A7C688"/>
<rect width="2.6815" height="18.7276" transform="matrix(-0.707107 0.707107 0.707107 0.707107 79.5723 86.1582)" fill="#A7C688"/>
<circle r="6.70375" transform="matrix(-1 0 0 1 74.0444 82.1343)" stroke="#A7C688" stroke-width="2.6815"/>
<circle r="6.70375" transform="matrix(-1 0 0 1 91.4741 66.0445)" stroke="#A7C688" stroke-width="2.6815"/>
</svg>
