<svg width="131" height="174" viewBox="0 0 131 174" fill="none" xmlns="http://www.w3.org/2000/svg">
<rect width="4" height="82" transform="matrix(-1 0 0 1 95 76)" fill="#FBA286"/>
<rect width="4" height="38" transform="matrix(-1 0 0 1 77 21)" fill="#FBA286"/>
<rect width="4" height="27.4221" transform="matrix(-0.707107 0.707107 0.707107 0.707107 75.6094 56.3633)" fill="#FBA286"/>
<rect x="110.754" y="93" width="4" height="27.936" transform="rotate(45 110.754 93)" fill="#FBA286"/>
<circle cx="119" cy="87" r="10" stroke="#FBA286" stroke-width="4"/>
<circle r="10" transform="matrix(-1 0 0 1 75 12)" stroke="#FBA286" stroke-width="4"/>
<rect width="4" height="108" transform="matrix(-1 0 0 1 40 66)" fill="#FBA286"/>
<rect width="4" height="27.936" transform="matrix(-0.707107 0.707107 0.707107 0.707107 20.2461 105)" fill="#FBA286"/>
<circle r="10" transform="matrix(-1 0 0 1 12 99)" stroke="#FBA286" stroke-width="4"/>
<circle r="10" transform="matrix(-1 0 0 1 38 58)" stroke="#FBA286" stroke-width="4"/>
</svg>
