<svg width="1150" height="313" viewBox="0 0 1150 313" fill="none" xmlns="http://www.w3.org/2000/svg">
<path d="M604 153.172C368.677 240.354 97.7483 175.343 0 153.171V312.999H1150V81.9996C1073.57 76.4168 815 75 604 153.172Z" fill="#A7C688"/>
<rect x="682" y="76" width="4" height="82" fill="#A7C688"/>
<rect x="700" y="21" width="4" height="38" fill="#A7C688"/>
<rect x="719.754" y="38" width="4" height="27.936" transform="rotate(45 719.754 38)" fill="#A7C688"/>
<rect x="701.391" y="56.3633" width="4" height="27.4221" transform="rotate(45 701.391 56.3633)" fill="#A7C688"/>
<rect width="4" height="27.936" transform="matrix(-0.707107 0.707107 0.707107 0.707107 666.246 93)" fill="#A7C688"/>
<circle cx="728" cy="32" r="10" stroke="#A7C688" stroke-width="4"/>
<circle r="10" transform="matrix(-1 0 0 1 658 87)" stroke="#A7C688" stroke-width="4"/>
<circle cx="702" cy="12" r="10" stroke="#A7C688" stroke-width="4"/>
<rect x="92" y="127" width="4" height="58" fill="#A7C688"/>
<rect x="111.754" y="146" width="4" height="27.936" transform="rotate(45 111.754 146)" fill="#A7C688"/>
<circle cx="120" cy="140" r="10" stroke="#A7C688" stroke-width="4"/>
<circle cx="94" cy="116" r="10" stroke="#A7C688" stroke-width="4"/>
</svg>
