<svg width="1140" height="272" viewBox="0 0 1140 272" fill="none" xmlns="http://www.w3.org/2000/svg">
<path d="M602 153.172C366.677 240.354 95.7483 175.343 -2 153.171L10.4891 301.515L1148 312.999V81.9996C1071.57 76.4168 813 75 602 153.172Z" fill="#A7C688"/>
<rect x="680" y="76" width="4" height="82" fill="#A7C688"/>
<rect x="698" y="21" width="4" height="38" fill="#A7C688"/>
<rect x="717.754" y="38" width="4" height="27.936" transform="rotate(45 717.754 38)" fill="#A7C688"/>
<rect x="699.391" y="56.3633" width="4" height="27.4221" transform="rotate(45 699.391 56.3633)" fill="#A7C688"/>
<rect width="4" height="27.936" transform="matrix(-0.707107 0.707107 0.707107 0.707107 664.246 93)" fill="#A7C688"/>
<circle cx="726" cy="32" r="10" stroke="#A7C688" stroke-width="4"/>
<circle r="10" transform="matrix(-1 0 0 1 656 87)" stroke="#A7C688" stroke-width="4"/>
<circle cx="700" cy="12" r="10" stroke="#A7C688" stroke-width="4"/>
<rect x="90" y="127" width="4" height="58" fill="#A7C688"/>
<rect x="109.754" y="146" width="4" height="27.936" transform="rotate(45 109.754 146)" fill="#A7C688"/>
<circle cx="118" cy="140" r="10" stroke="#A7C688" stroke-width="4"/>
<circle cx="92" cy="116" r="10" stroke="#A7C688" stroke-width="4"/>
</svg>
